<svg width="600" height="600" xmlns="http://www.w3.org/2000/svg">

 <g>
  <title>Layer 1</title>
  <ellipse id="svg_11" cy="423.99999" cx="738.59998" stroke="#000" fill="#A0D58A"/>
  <g stroke="null" id="svg_12">
   <path stroke="#000" id="svg_3" d="m224.31197,354.92445l30,-34.37678l99.99999,0l29.99998,34.37678l-159.99997,0z" fill="#BBBBBB"/>
   <rect stroke="#000" id="svg_4" height="100.77416" width="156.19048" y="356.22584" x="225.8206" fill="#DDDDDD"/>
   <line stroke="#000" id="svg_9" y2="170.83686" x2="303.40786" y1="319.39359" x1="303.40786" fill="none"/>
   <ellipse stroke="#000" ry="4.2971" rx="5.07937" id="svg_10" cy="172.67848" cx="304.67771" fill="#000000"/>
   <path stroke="#000" id="svg_7" d="m323.25371,189.05161l-17.85699,-1.51049l-13.14608,-17.39106l1.78702,-19.74859l48.50918,-45.03741l29.21576,38.65324l-48.5089,45.03431zm-20.11825,-20.58134c-1.91219,1.77534 -2.19406,4.89027 -0.62949,6.95657c1.56429,2.06941 4.38086,2.30766 6.29305,0.53232c1.91528,-1.77821 2.19378,-4.88716 0.62977,-6.95968c-1.56429,-2.06941 -4.38086,-2.30766 -6.29333,-0.52921z" fill="#A0D58A"/>
  </g>
 </g>
</svg>